<svg xmlns="http://www.w3.org/2000/svg" width="72" height="72" stroke="#000" fill="none" stroke-linejoin="round" stroke-width="4.5" xmlns:v="https://vecta.io/nano"><path d="M39.135 55.908L28 57.498l1.6-11.136 28.638-28.638a6.75 6.75 0 1 1 9.546 9.546L39.135 55.908z"/><rect x="15.75" y="2.247" width="22.5" height="9" rx="2.25"/><g stroke-linecap="round"><path d="M38.25 6.747h9a4.5 4.5 0 0 1 4.5 4.5"/><path d="M51.75 56.247v9a4.5 4.5 0 0 1-4.5 4.5H6.75a4.5 4.5 0 0 1-4.5-4.5v-54a4.5 4.5 0 0 1 4.5-4.5h9"/><path d="M15.75 24.747h22.5m-22.5 13.5h9"/></g></svg>