<svg xmlns="http://www.w3.org/2000/svg" width="72" height="72" stroke="#000" fill="none" stroke-linejoin="round" stroke-width="4.5" xmlns:v="https://vecta.io/nano"><path d="M67.42 36a2.25 2.25 0 0 1 1.643.713c.426.455.644 1.065.604 1.687C68.396 56.056 53.702 69.73 36 69.73S3.604 56.056 2.334 38.4c-.04-.62.177-1.23.603-1.686S3.956 36 4.578 36h62.84z"/><path d="M14.976 62.376L18 47.25h3.237a4.5 4.5 0 0 0 4.365-5.592L24.183 36m29.442 0l1.998 12a4.5 4.5 0 0 0 4.44 3.759h5.775M51.75 36V14.87m-31.5 0V36M58.5 20.946L39 3.405a4.5 4.5 0 0 0-6.021 0L13.5 20.946m40.5-4.05V4.5M29.25 36v-6.75a6.75 6.75 0 1 1 13.5 0V36" stroke-linecap="round"/></svg>