<svg xmlns="http://www.w3.org/2000/svg" width="72" height="72" stroke="#000" fill="none" xmlns:v="https://vecta.io/nano"><g stroke-linecap="round" stroke-linejoin="round" stroke-width="4.5"><path d="M69.75 33.75v-19.8a4.5 4.5 0 0 0-2.829-4.179l-18-7.2a4.5 4.5 0 0 0-3.342 0L26.42 10.236a4.5 4.5 0 0 1-3.342 0L5.337 3.138a2.25 2.25 0 0 0-3.087 2.1v43.12a4.5 4.5 0 0 0 2.829 4.179l18 7.2a4.5 4.5 0 0 0 3.342 0"/><path d="M24.75 10.557V33.75m22.5-31.5V22.5"/></g><circle cx="49.5" cy="49.5" r="15.75" stroke-linejoin="round" stroke-width="4.5"/><path d="M69.75 69.75l-9.042-9.042" stroke-linecap="round" stroke-linejoin="round" stroke-width="4.5"/></svg>