<svg xmlns:xlink="http://www.w3.org/1999/xlink" id="Calque_1" xmlns="http://www.w3.org/2000/svg" viewBox="0 0 141.73 141.73" style="enable-background:new 0 0 141.73 141.73"><style>.st0{fill:#fff}.st1{fill:#556f7b}.st2{opacity:.55}.st3{clip-path:url(#SVGID_2_);fill-rule:evenodd;clip-rule:evenodd;fill:#159bd8}.st4{clip-path:url(#SVGID_4_);fill-rule:evenodd;clip-rule:evenodd;fill:#16428f}.st5{clip-path:url(#SVGID_6_);fill-rule:evenodd;clip-rule:evenodd;fill:#048d42}.st6{clip-path:url(#SVGID_8_);fill-rule:evenodd;clip-rule:evenodd;fill:#83bc45}.st7{clip-path:url(#SVGID_10_);fill-rule:evenodd;clip-rule:evenodd;fill:#0a67b1}.st8{clip-path:url(#SVGID_12_);fill-rule:evenodd;clip-rule:evenodd;fill:#d5da2c}.st9{clip-path:url(#SVGID_14_);fill-rule:evenodd;clip-rule:evenodd;fill:#03a14f}.st10{clip-path:url(#SVGID_16_);fill-rule:evenodd;clip-rule:evenodd;fill:#3dac48}.st11{clip-path:url(#SVGID_18_);fill-rule:evenodd;clip-rule:evenodd;fill:#1173ba}.st12{clip-path:url(#SVGID_20_);fill-rule:evenodd;clip-rule:evenodd;fill:#088ccd}.st13{opacity:.35}</style><g><path class="st0" d="M141.38 70.87c0 38.94-31.57 70.52-70.52 70.52S.35 109.81.35 70.87 31.92.35 70.87.35 141.38 31.92 141.38 70.87"/><path class="st1" d="M70.87 141.73C31.79 141.73.0 109.94.0 70.87.0 31.79 31.79.0 70.87.0s70.87 31.79 70.87 70.87C141.73 109.94 109.94 141.73 70.87 141.73M70.87.7C32.18.7.7 32.18.7 70.87c0 38.69 31.48 70.17 70.17 70.17s70.17-31.48 70.17-70.17C141.03 32.18 109.56.7 70.87.7"/><g class="st2"><g><defs><path id="SVGID_1_" d="M20.04 19.92h101.66v101.65H20.04z"/></defs><clipPath id="SVGID_2_"><use xlink:href="#SVGID_1_" style="overflow:visible"/></clipPath><path class="st3" d="M20.12 67.84C21.73 39.82 45.74 18.4 73.77 20c28.02 1.6 49.44 25.62 47.84 53.65s-25.62 49.44-53.65 47.84C39.94 119.88 18.52 95.87 20.12 67.84"/></g></g><g class="st2"><g><defs><path id="SVGID_3_" d="M20.04 29.22h51.03v87.68H20.04z"/></defs><clipPath id="SVGID_4_"><use xlink:href="#SVGID_3_" style="overflow:visible"/></clipPath><path class="st4" d="M41.56 29.22c18.39 8.5 30.66 27.61 29.43 49.06-.92 16.09-9.23 29.99-21.43 38.62C31.16 108.4 18.9 89.3 20.12 67.84 21.04 51.76 29.35 37.85 41.56 29.22"/></g></g><g class="st2"><g><defs><path id="SVGID_5_" d="M78.95 28.35h42.75v82.78H78.95z"/></defs><clipPath id="SVGID_6_"><use xlink:href="#SVGID_5_" style="overflow:visible"/></clipPath><path class="st5" d="M79.03 65.84c.88-15.39 8.53-28.79 19.88-37.48 14.57 9.66 23.76 26.58 22.69 45.29-.88 15.4-8.53 28.79-19.89 37.48C87.16 101.47 77.96 84.55 79.03 65.84"/></g></g><g class="st2"><g><defs><path id="SVGID_7_" d="M26.65 19.92h59.03v27.95H26.65z"/></defs><clipPath id="SVGID_8_"><use xlink:href="#SVGID_7_" style="overflow:visible"/></clipPath><path class="st6" d="M85.68 22.12c-9.25 16.28-27.17 26.81-47.12 25.67-4.13-.24-8.12-.96-11.91-2.12C35.89 29.39 53.81 18.86 73.77 20 77.9 20.24 81.89 20.97 85.68 22.12"/></g></g><g class="st2"><g><defs><path id="SVGID_9_" d="M29.55 70.74h87.51v50.83H29.55z"/></defs><clipPath id="SVGID_10_"><use xlink:href="#SVGID_9_" style="overflow:visible"/></clipPath><path class="st7" d="M29.55 100.34C38.03 81.9 57.16 69.6 78.64 70.83c15.96.91 29.77 9.1 38.42 21.15-8.48 18.43-27.61 30.74-49.1 29.51C52 120.58 38.19 112.39 29.55 100.34"/></g></g><g class="st2"><g><defs><path id="SVGID_11_" d="M64.89 19.92h56.52v45.77H64.89z"/></defs><clipPath id="SVGID_12_"><use xlink:href="#SVGID_11_" style="overflow:visible"/></clipPath><path class="st8" d="M121.41 65.34c-2.9.34-5.87.44-8.88.26-25.21-1.44-45.07-21.02-47.64-45.34 2.9-.34 5.86-.43 8.88-.26C98.98 21.45 118.84 41.02 121.41 65.34"/></g></g><g class="st2"><g><defs><path id="SVGID_13_" d="M26.65 19.92h82.43v43.04H26.65z"/></defs><clipPath id="SVGID_14_"><use xlink:href="#SVGID_13_" style="overflow:visible"/></clipPath><path class="st9" d="M109.08 37.24c-8.69 15.89-26.78 26.54-47.12 25.67-14.18-.61-26.64-7.35-35.31-17.24C35.89 29.39 53.81 18.86 73.77 20 87.93 20.81 100.41 27.35 109.08 37.24z"/></g></g><g class="st2"><g><defs><path id="SVGID_15_" d="M20.04 29.22h23.39v55.25H20.04z"/></defs><clipPath id="SVGID_16_"><use xlink:href="#SVGID_15_" style="overflow:visible"/></clipPath><path class="st10" d="M41.55 29.23c1.48 5.27 2.12 10.87 1.79 16.63-.92 16.08-9.23 29.99-21.43 38.62-1.48-5.27-2.12-10.87-1.79-16.63C21.04 51.76 29.35 37.85 41.55 29.23"/></g></g><g class="st2"><g><defs><path id="SVGID_17_" d="M69.15 70.39h52.54v51.18H69.15z"/></defs><clipPath id="SVGID_18_"><use xlink:href="#SVGID_17_" style="overflow:visible"/></clipPath><path class="st11" d="M69.23 118.32c1.58-27.63 24.94-48.83 52.46-47.89.0 1.07-.02 2.14-.08 3.23-1.58 27.63-24.94 48.83-52.46 47.89C69.15 120.47 69.17 119.4 69.23 118.32"/></g></g><g class="st2"><g><defs><path id="SVGID_19_" d="M20.05 70.67h61.24v50.9H20.05z"/></defs><clipPath id="SVGID_20_"><use xlink:href="#SVGID_19_" style="overflow:visible"/></clipPath><path class="st12" d="M20.05 71.74c4.28-.89 8.75-1.25 13.33-.99 26.72 1.53 47.43 23.43 47.91 49.75-4.28.89-8.75 1.25-13.32.99C41.25 119.96 20.54 98.06 20.05 71.74"/></g></g><g class="st13"><g><defs><path id="SVGID_21_" d="M50.67 33.57h70.47v85.77H50.67z"/></defs><clipPath id="SVGID_22_"><use xlink:href="#SVGID_21_" style="overflow:visible"/></clipPath></g></g><path class="st0" d="M70.83 121.81c15.86.0 30.02-7.26 39.34-18.64-.85-1.08-1.47-1.87-1.47-1.87s3.34-.51-.52-2.66c-3.86-2.15-3.86-2.25-4.73-2.86-.87-.61-3.11-.96-3.3-1.26-.19-.3 1.99-1.22-.34-1.97-2.33-.74-4.76-1.68-4.76-1.68s1.22-1.93-.23-2.65c-1.45-.72-2.92-.86-3.22-.67-.3.19-.86-.81-1.34-1.31-.48-.5-1.75-.73-2.33-.64-.53.07-4.11-.08-4.92-.41.02.18.03.29.03.29l-.19-.4c.02.04.07.07.16.11-.11-1.13-.52-5.25-.5-6.09.02-.98.42-1.26.42-1.26s5.57.53 5.18-3.5c0 0-.55-1.48-.33-2.55.0.0 1-.56.27-1.44.0.0.65-.5.3-1.88.0.0-.18-.59.03-1.17.0.0 2.14-.18 1.41-1.63-.48-.95-.57-.7-.75-1.29-.18-.59-1.02-2.28-1.2-3.06-.18-.79 1.03-2.23 1.05-2.91.02-.68-.83-2.27-1.01-2.96-.18-.69-1.02-2.47-1.18-3.65-.17-1.18-.7-3.35-1.08-3.75-.38-.4-.94-1.39-1.12-2.08-.18-.69-1.22-1.99-1.51-2.29-.29-.3-2.49-2.12-4.73-2.76-2.24-.64-2.82-.95-4.18-1.08-1.37-.13-2.15.04-2.05-.34.11-.39 1.38-.26 2.74-.03.39.06 1.73.66 3.34-.21 1.39-.75 2.63-3.36-1.3-6.79-3.93-3.43-8.88-1.1-9.97-.54-1.09.56.0-.1-2.67 1.21-2.67 1.31-6.58 4.93-7.45 8.53-.87 3.6-.09 3.62-.01 4.6.07.98-.15 2.15-1.06 3.5-.92 1.35-2.41 2.29-1.27 4.08 1.13 1.79.33 2.46-.18 3.33-.51.87-1.14 2.62.1 3.72 1.25 1.11 1.04 1.49 1.22 2.28.18.79.72 2.47 1 3.16.28.69.07.98-.05 2.15-.13 1.17-.91 1.35-1.03 2.23-.12.88-.01.59.88.12.89-.47-.71 1.16-.73 1.94-.02.78.78.12.78.12s.06 1.47-.53 1.75c-.59.28.97.32 1.11-1.34.14-1.66 1.04 1.69-1.06 3.21-2.09 1.52 1.38-.46 1.38-.46l-.52 1.07c0 0 1.87-.35.38.69-1.49 1.04-2.07.73-2.07.73s-2.11 2.1.05 2.06c2.15-.05.97.51 1.44 1.21.47.7 1.92 1.71 2.69 2.02.78.31 5.02.56 5.02.56l-.42.91c0 0-6.3-.04-8.56.4-2.26.43-3.66 1.67-3.69 2.55s.06 1.37-.82 1.55c-.89.17-4.01.0-5.02 1.25-1.01 1.25-1.31 1.63-2.2 1.71-.88.08-2.08.83-2.19 1.61-.12.78-.24 1.95-1.25 2.91-1 .95-3.95 1.27-4.49 3.41-.45 1.77-.3 3.83-.89 6.02C43.9 116.04 56.69 121.81 70.83 121.81"/><path class="st1" d="M27.8 108.32 26.36 108.74 26.27 108.62 26.91 107.27 25.65 108.33 25.55 108.21 27.08 106.92 27.18 107.04 26.45 108.57 28.07 108.09 28.17 108.21 26.64 109.5 26.54 109.38z"/><path transform="matrix(0.733 -0.6802 0.6802 0.733 -67.1308 48.5214)" class="st1" d="M27.25 109.7h2v.15h-2z"/><path class="st1" d="M29.74 110.3 28.5 111.51 28.39 111.41 29.82 110.01 29.92 110.11 29.5 112.15 30.73 110.94 30.84 111.05 29.41 112.45 29.3 112.34z"/><path class="st1" d="M31.67 111.85 31.78 111.96 30.4 113.4 30.29 113.3z"/><path class="st1" d="M31.64 114.57c-.22-.2-.31-.38-.32-.64l.15-.01c.01.25.09.39.26.56.24.21.48.23.66.04.08-.09.12-.18.11-.28-.02-.1-.03-.14-.14-.27l-.15-.18c-.1-.12-.15-.23-.17-.35-.02-.13.03-.26.13-.38.22-.25.54-.25.83.01.18.17.26.32.28.55l-.14.01c-.01-.16-.06-.31-.24-.46-.22-.19-.45-.19-.62.0-.08.08-.11.17-.1.26.01.09.07.2.14.29l.14.17c.12.14.16.23.18.34.02.14-.02.29-.13.4C32.28 114.87 31.95 114.85 31.64 114.57"/><path class="st1" d="M33.37 116.05 33.25 115.95 34.45 114.52 33.99 114.14 34.08 114.04 35.11 114.9 35.02 115 34.56 114.62z"/><path class="st1" d="M35.82 115.46l.96.74-.08.11-.84-.65-.48.62.72.55-.08.11-.72-.55-.49.64.84.65-.08.11-.96-.74L35.82 115.46zM36.38 115.13l.15.11-.04.49-.13-.1L36.38 115.13z"/><path class="st1" d="M37.53 118.08l-.45-.32-.53.75-.12-.09 1.16-1.63.62.44c.27.19.36.49.16.77-.17.25-.43.3-.69.17l-.14 1.03-.14-.1L37.53 118.08zM38.1 117.33l-.48-.34-.47.66.48.34c.21.15.43.15.59-.07C38.39 117.69 38.31 117.48 38.1 117.33"/><path class="st1" d="M39.53 118.15 40.55 118.81 40.47 118.92 39.58 118.34 39.15 119 39.91 119.5 39.84 119.61 39.08 119.12 38.64 119.79 39.53 120.37 39.46 120.48 38.44 119.82z"/><path class="st1" d="M42.59 122.13c-.16.05-.34.02-.53-.09l-.58-.33.98-1.74.59.33c.18.1.3.24.35.4.08.28-.09.55-.22.78C43.05 121.72 42.87 122.05 42.59 122.13M43.25 120.75c-.04-.16-.16-.27-.3-.35l-.42-.24-.85 1.51.42.24c.14.08.29.13.45.08.22-.07.38-.38.49-.57C43.16 121.22 43.31 120.97 43.25 120.75"/><path class="st1" d="M44.58 121.13 45.66 121.69 45.6 121.81 44.66 121.32 44.3 122.03 45.1 122.44 45.04 122.56 44.24 122.15 43.87 122.87 44.82 123.35 44.76 123.47 43.67 122.92z"/><path class="st1" d="M47.7 122.65 47.84 122.71 47.09 124.42 48.07 124.85 48.01 124.97 46.9 124.48z"/><path class="st1" d="M50.03 125.26l-.87-.34-.34.39-.15-.06 1.42-1.59.13.05-.05 2.13-.15-.06L50.03 125.26zM49.26 124.81l.78.31.04-1.25L49.26 124.81z"/><path class="st1" d="M52.79 126.74 52.65 126.7 53.22 124.92 52.66 124.74 52.7 124.61 53.98 125.02 53.94 125.15 53.37 124.97z"/><path class="st1" d="M55.24 126.52l-.53-.15-.25.89-.15-.04.54-1.92.73.21c.31.09.5.34.4.67-.08.29-.31.42-.59.39l.21 1.02-.17-.05L55.24 126.52zM55.53 125.62l-.57-.16-.22.78.57.16c.25.07.46.0.53-.27C55.92 125.86 55.78 125.69 55.53 125.62"/><path class="st1" d="M57.77 127.62l-.91-.22-.28.43-.16-.04 1.18-1.77.13.03.25 2.12-.16-.04L57.77 127.62zM56.94 127.28l.81.19-.13-1.24L56.94 127.28z"/><path class="st1" d="M59.41 126.69 59.07 128.4 58.93 128.37 59.31 126.4 59.46 126.43 60.26 128.36 60.59 126.65 60.74 126.68 60.36 128.65 60.21 128.62z"/><path class="st1" d="M62.04 128.94c-.29-.04-.47-.15-.62-.36l.12-.09c.15.2.29.28.53.32.31.05.53-.07.57-.33.02-.12.0-.22-.07-.29-.07-.07-.11-.1-.27-.15l-.22-.07c-.15-.04-.26-.11-.33-.2-.09-.1-.12-.23-.1-.39.05-.33.31-.51.69-.45.24.04.39.13.54.3l-.11.08c-.1-.13-.22-.22-.45-.26-.29-.04-.48.09-.52.34-.02.11.0.2.06.27.06.07.17.13.28.17l.21.07c.18.05.26.1.33.18.09.1.14.25.11.41C62.74 128.83 62.46 129 62.04 128.94"/><path transform="matrix(0.1184 -0.993 0.993 0.1184 -70.875 176.5155)" class="st1" d="M62.97 128.09h2v.15h-2z"/><path class="st1" d="M65.66 129.35 65.51 129.34 65.67 127.48 65.07 127.43 65.09 127.29 66.43 127.41 66.42 127.54 65.82 127.49z"/><path class="st1" d="M67.35 127.47 67.5 127.48 67.38 129.48 67.23 129.47z"/><path class="st1" d="M69.7 129.38c-.14.13-.31.2-.5.19s-.37-.08-.49-.22c-.18-.19-.18-.37-.16-.82.01-.45.02-.63.21-.8.14-.13.31-.2.51-.19.19.0.37.08.49.22.18.19.18.36.16.82C69.9 129.02 69.89 129.2 69.7 129.38M69.62 127.84c-.1-.1-.23-.16-.38-.16-.14.0-.28.05-.38.14-.15.14-.16.3-.17.72-.01.43.0.58.14.73.1.1.23.16.38.16s.28-.05.38-.14c.15-.14.16-.3.17-.72C69.77 128.14 69.76 127.99 69.62 127.84"/><path class="st1" d="M71.15 127.84 71.18 129.58H71.03L70.99 127.59 71.14 127.58 72.33 129.29 72.3 127.56H72.45L72.48 129.56H72.33z"/><path class="st1" d="M74.85 127.45l1.21-.1.01.14-1.06.08.06.79.9-.07.01.13-.9.07.06.8 1.06-.08.01.13-1.21.1L74.85 127.45zM75.27 127.22l.24-.43.19-.01-.26.43L75.27 127.22z"/><path class="st1" d="M77.87 129.18c-.19.02-.37-.03-.52-.15-.2-.16-.23-.34-.28-.78-.05-.45-.07-.63.09-.83.12-.15.28-.24.47-.26.36-.04.64.15.74.5l-.15.02c-.09-.27-.31-.42-.58-.38-.14.02-.27.08-.36.2-.13.16-.12.32-.07.74.05.43.08.58.24.7.11.09.25.13.39.11.27-.03.45-.22.47-.51l.15-.02C78.45 128.89 78.22 129.14 77.87 129.18"/><path class="st1" d="M80.72 128.57c-.11.15-.27.25-.46.28-.19.03-.37-.01-.53-.12-.21-.15-.24-.33-.31-.77-.07-.45-.1-.62.06-.83.11-.15.27-.25.46-.28.19-.03.38.01.53.12.21.15.24.33.31.77C80.85 128.18 80.87 128.36 80.72 128.57M80.36 127.07c-.12-.08-.26-.11-.4-.09-.14.02-.27.1-.35.21-.12.16-.1.32-.04.74.07.42.1.58.27.69.12.08.26.12.4.09.14-.02.26-.1.35-.21.12-.16.11-.32.04-.74C80.56 127.34 80.52 127.19 80.36 127.07"/><path class="st1" d="M81.67 126.55 81.82 126.53 82.19 128.35 83.23 128.14 83.25 128.27 82.07 128.51z"/><path class="st1" d="M85.19 127.63c-.1.16-.25.27-.44.32-.19.05-.38.02-.53-.08-.22-.13-.27-.31-.37-.74-.11-.44-.14-.61-.01-.83.1-.16.25-.27.44-.32.19-.04.38-.02.54.08.22.13.26.31.37.74C85.28 127.23 85.32 127.41 85.19 127.63M84.71 126.16c-.12-.08-.27-.1-.41-.06-.14.04-.26.12-.33.24-.11.17-.08.33.02.74s.15.57.32.67c.12.07.27.09.4.06.14-.03.26-.12.33-.24.11-.17.08-.33-.02-.74C84.93 126.42 84.88 126.26 84.71 126.16"/><path class="st1" d="M87.54 126.96c-.09.18-.25.31-.44.37-.18.05-.38.03-.54-.06-.23-.13-.28-.3-.4-.73-.13-.43-.17-.6-.05-.83.09-.16.24-.28.42-.33.33-.1.66.05.82.37l-.15.04c-.13-.25-.38-.36-.64-.28-.14.04-.25.13-.32.25-.1.18-.07.33.05.74.12.41.17.56.35.66.13.07.27.08.41.04.15-.04.28-.15.35-.3.05-.13.05-.25.01-.42l-.05-.17-.52.15-.04-.13.66-.19.09.31C87.62 126.65 87.62 126.8 87.54 126.96"/><path class="st1" d="M88.22 124.87 88.37 124.83 88.98 126.73 88.83 126.78z"/><path class="st1" d="M91.07 125.87c-.08.14-.21.24-.36.29-.18.06-.37.06-.54-.02-.23-.11-.3-.28-.45-.7-.15-.43-.21-.59-.1-.83.08-.17.22-.3.4-.36.18-.06.37-.05.54.03.23.11.3.28.45.7.14.39.2.57.12.77l.3.14-.06.13L91.07 125.87zM90.47 124.39c-.13-.06-.27-.07-.41-.02-.13.05-.24.14-.3.27-.09.18-.04.34.1.74.14.4.21.55.39.63.13.06.27.07.41.02.12-.04.21-.12.28-.23l-.36-.17.06-.13.35.17c.04-.15-.01-.32-.13-.65C90.72 124.62 90.65 124.48 90.47 124.39"/><path class="st1" d="M93.02 125.27c-.37.15-.74.0-.89-.36l-.51-1.25.14-.06.5 1.23c.13.31.4.43.7.31.3-.12.41-.4.29-.71l-.5-1.23.14-.06.51 1.25C93.55 124.76 93.39 125.12 93.02 125.27"/><path class="st1" d="M93.91 122.7 95.02 122.2 95.07 122.32 94.11 122.76 94.44 123.48 95.26 123.1 95.32 123.22 94.49 123.6 94.83 124.33 95.79 123.89 95.85 124.01 94.75 124.52z"/><path class="st1" d="M97.03 121.2 98.1 120.63 98.16 120.75 97.23 121.25 97.6 121.94 98.4 121.52 98.46 121.64 97.66 122.06 98.04 122.77 98.98 122.27 99.04 122.39 97.97 122.96z"/><path class="st1" d="M100.42 121.61 100.29 121.68 99.35 120.07 98.84 120.37 98.77 120.25 99.93 119.57 1e2 119.69 99.48 119.99z"/><path class="st1" d="M103.32 119.82c-.25.16-.45.2-.7.15l.03-.15c.25.05.4.01.61-.12.26-.18.34-.41.2-.63-.07-.1-.15-.16-.25-.17-.1-.01-.15.0-.3.07l-.22.1c-.14.07-.26.09-.38.08-.14-.01-.25-.09-.34-.22-.19-.28-.11-.59.21-.8.21-.14.38-.17.6-.14l-.03.14c-.16-.03-.31-.02-.51.11-.24.16-.3.39-.16.6.06.1.14.15.23.16.09.01.21-.02.32-.06l.2-.09c.17-.08.26-.1.37-.09.14.01.27.09.36.23C103.77 119.27 103.67 119.59 103.32 119.82"/><path class="st1" d="M105.54 118.02c-.03.18-.13.35-.28.46s-.34.16-.53.13c-.25-.04-.36-.19-.63-.55-.27-.37-.37-.51-.32-.77.03-.18.13-.35.28-.46.15-.11.34-.16.53-.13.26.04.36.18.63.55C105.48 117.62 105.59 117.76 105.54 118.02M104.55 116.84c-.14-.02-.28.01-.4.1-.12.08-.19.21-.22.35-.03.2.05.33.3.68.25.35.35.47.55.5.14.02.28-.01.4-.1.12-.08.19-.21.22-.35.03-.2-.05-.34-.3-.68C104.85 116.99 104.75 116.87 104.55 116.84"/><path class="st1" d="M105.47 115.8 105.59 115.71 106.74 117.17 107.58 116.52 107.66 116.62 106.71 117.37z"/><path class="st1" d="M107.14 114.46 107.26 114.36 108.54 115.9 108.43 115.99z"/><path class="st1" d="M110.22 114.2c-.01.17-.1.33-.25.47l-.5.45-1.33-1.49.5-.45c.16-.14.32-.21.49-.2.29.02.49.26.67.46C109.98 113.64 110.23 113.91 110.22 114.2M109.12 113.13c-.17-.01-.3.06-.42.17l-.36.32 1.15 1.29.36-.32c.12-.11.21-.24.22-.4.01-.23-.23-.48-.38-.65C109.53 113.37 109.35 113.15 109.12 113.13"/><path class="st1" d="M111.67 112.4l-.67.65.21.47-.12.11-.86-1.95.1-.09 1.92.93-.12.11L111.67 112.4zM110.94 112.92l.6-.58-1.12-.56L110.94 112.92z"/><path class="st1" d="M111.48 110.45 111.59 110.34 113.02 111.73 112.92 111.84z"/><path class="st1" d="M113.65 109.71l-.37.41.68.62-.1.11-1.48-1.35.51-.56c.22-.24.52-.3.78-.06.22.2.24.46.09.7l1.01.26-.12.13L113.65 109.71zM112.98 109.05l-.4.44.6.54.4-.43c.17-.19.2-.41.0-.6C113.37 108.81 113.15 108.86 112.98 109.05"/><path class="st1" d="M113.96 107.74 114.74 106.81 114.84 106.9 114.16 107.71 114.76 108.22 115.34 107.52 115.45 107.61 114.87 108.3 115.49 108.82 116.17 108.01 116.27 108.09 115.49 109.02z"/><path class="st1" d="M9.98 73.38 8.6 72.82 8.59 72.67 9.94 72.01 8.29 72.06V71.9L10.29 71.84V72L8.77 72.74 10.33 73.37 10.34 73.52 8.34 73.58V73.43z"/><path class="st1" d="M10.41 74.67 10.42 74.82 8.42 74.95 8.41 74.8z"/><path class="st1" d="M10.25 76.14 8.52 76.31 8.5 76.16 10.49 75.97 10.51 76.12 8.89 77.43 10.62 77.27 10.63 77.42 8.64 77.61 8.63 77.46z"/><path class="st1" d="M10.77 78.55 10.79 78.7 8.81 78.96 8.79 78.81z"/><path class="st1" d="M9.03 80.65c-.05-.29.01-.49.16-.7l.12.09c-.15.2-.18.36-.15.6.05.31.23.48.49.44.12-.02.21-.07.26-.15.05-.08.06-.13.06-.3v-.24c0-.15.03-.28.09-.38.07-.12.18-.19.34-.21.33-.05.58.15.64.53.04.24.0.41-.12.6l-.11-.08c.09-.13.15-.28.11-.51-.05-.29-.23-.43-.48-.39-.11.02-.19.06-.24.14-.05.08-.07.2-.08.31v.22c0 .19-.02.28-.08.37-.07.12-.2.21-.36.23C9.34 81.28 9.09 81.07 9.03 80.65"/><path class="st1" d="M9.44 82.88 9.41 82.73 11.24 82.38 11.13 81.8 11.26 81.77 11.52 83.09 11.38 83.12 11.27 82.53z"/><path class="st1" d="M11.71 83.99l.27 1.18-.13.03-.24-1.04-.77.18.2.88-.13.03-.2-.88-.79.18.24 1.04-.13.03-.27-1.18L11.71 83.99zM12.36 84.1l.04.19-.34.36-.04-.16L12.36 84.1z"/><path class="st1" d="M11.37 87.1l-.14-.53-.89.24-.04-.15 1.93-.53.2.74c.09.32-.03.6-.37.7-.29.08-.52-.04-.64-.3l-.77.71L10.6 87.8 11.37 87.1zM12.29 86.89l-.16-.57-.78.21.16.57c.07.25.24.39.51.32C12.28 87.35 12.36 87.14 12.29 86.89"/><path class="st1" d="M12.87 88.41 13.23 89.57 13.1 89.61 12.79 88.6 12.03 88.84 12.3 89.7 12.17 89.74 11.9 88.88 11.13 89.12 11.45 90.13 11.32 90.17 10.96 89.01z"/><path class="st1" d="M12.67 93.44c-.16-.07-.27-.21-.35-.4l-.24-.63 1.87-.71.24.63c.07.2.08.38.01.53-.12.26-.42.36-.67.46C13.28 93.42 12.94 93.56 12.67 93.44M14.07 92.8c.07-.15.05-.31-.01-.46l-.17-.45-1.62.61.17.45c.06.15.14.28.29.35.21.09.53-.04.74-.12C13.69 93.1 13.97 93.01 14.07 92.8"/><path class="st1" d="M14.84 93.96 15.32 95.07 15.19 95.13 14.78 94.15 14.05 94.46 14.4 95.29 14.28 95.34 13.93 94.51 13.18 94.82 13.6 95.8 13.47 95.85 13 94.74z"/><path class="st1" d="M16.25 97.12 16.32 97.26 14.65 98.08 15.11 99.03 14.99 99.09 14.46 98z"/><path class="st1" d="M16.36 100.63l-.44-.82-.51.08-.08-.14 2.11-.3.06.12-1.41 1.6-.08-.14L16.36 100.63zM16.06 99.78l.4.74.84-.93L16.06 99.78z"/><path class="st1" d="M17.52 103.64c-.1-.16-.13-.35-.09-.53.06-.25.21-.35.59-.58.39-.24.54-.33.79-.27.18.04.34.16.44.32.19.31.13.64-.14.89l-.08-.13c.21-.2.25-.45.11-.68-.08-.12-.19-.21-.33-.24-.2-.05-.34.03-.7.25-.36.22-.49.32-.54.51-.03.14-.01.28.07.4.14.23.39.31.66.22l.08.13C18.04 104.04 17.71 103.94 17.52 103.64"/><path class="st1" d="M19.27 105.96c-.18-.04-.34-.14-.45-.3-.11-.16-.14-.35-.11-.53.05-.25.2-.36.57-.61.38-.25.52-.35.78-.3.18.04.34.14.45.3.11.16.14.35.11.53-.05.25-.2.35-.57.6C19.67 105.91 19.52 106.01 19.27 105.96M20.48 105.01c.03-.14.0-.28-.08-.4-.08-.12-.2-.2-.34-.23-.2-.04-.34.04-.69.28-.36.24-.48.33-.52.53-.03.14.0.28.08.4.08.12.2.2.34.23.2.04.34-.04.69-.28S20.44 105.2 20.48 105.01"/><path class="st1" d="M21.34 107.57 20.72 106.73 19.96 107.28 19.88 107.16 21.49 105.98 21.58 106.1 20.83 106.65 21.45 107.49 22.19 106.95 22.28 107.07 20.67 108.25 20.58 108.12z"/><path class="st1" d="M22.97 107.98l.75.95-.11.08-.66-.83-.62.49.56.71-.1.08-.56-.71-.63.5.66.83-.11.08-.75-.95L22.97 107.98zM23.4 108.2l.49-.04.12.15-.51.02L23.4 108.2z"/><path class="st1" d="M23.14 111.37c-.19-.22-.25-.42-.23-.68l.15.01c-.02.25.03.4.19.58.21.24.45.29.65.12.09-.08.14-.17.14-.27.0-.1-.02-.15-.11-.29l-.12-.2c-.08-.13-.12-.25-.12-.37.0-.14.06-.26.18-.36.26-.22.57-.18.82.12.16.19.21.35.21.58l-.14-.01c.01-.16-.02-.31-.17-.49-.19-.22-.42-.25-.62-.08-.09.08-.13.16-.13.25.0.09.04.21.1.31l.11.19c.1.16.13.25.13.36.0.14-.06.28-.18.38C23.74 111.75 23.41 111.69 23.14 111.37"/><path transform="matrix(0.7393 -0.6733 0.6733 0.7393 -68.9139 46.1094)" class="st1" d="M24.1 111.99h2v.15h-2z"/><path class="st1" d="M26.12 114.35c-.19.0-.36-.08-.49-.22-.13-.14-.2-.32-.2-.5.01-.26.13-.39.46-.7.33-.31.46-.43.72-.42.19.0.36.08.49.22.13.14.2.32.2.5-.01.26-.13.38-.46.69C26.51 114.23 26.38 114.36 26.12 114.35M27.15 113.2c0-.14-.05-.28-.15-.38-.1-.1-.23-.16-.37-.17-.2.0-.32.1-.63.39-.31.3-.42.41-.42.61.0.14.05.28.15.38.1.1.23.16.37.17.2.0.32-.1.63-.39C27.04 113.52 27.14 113.4 27.15 113.2"/><path class="st1" d="M28.23 114.28 27.03 115.53 26.92 115.42 28.31 113.98 28.41 114.09 28.04 116.14 29.25 114.89 29.36 114.99 27.97 116.43 27.86 116.33z"/><path class="st1" d="M30.85 118.75c-.17.01-.34-.05-.5-.19l-.51-.44 1.3-1.52.51.44c.16.14.25.29.26.46.02.29-.19.52-.36.73C31.37 118.44 31.13 118.73 30.85 118.75M31.76 117.52c-.01-.17-.11-.29-.23-.4l-.37-.32-1.12 1.32.37.31c.12.1.26.18.43.16.23-.02.45-.29.59-.46C31.58 117.96 31.77 117.75 31.76 117.52"/><path class="st1" d="M33 118.15 33.95 118.9 33.87 119.01 33.03 118.35 32.54 118.97 33.26 119.53 33.17 119.64 32.46 119.08 31.96 119.71 32.8 120.37 32.71 120.48 31.76 119.73z"/><path class="st1" d="M33.97 121.44c-.24-.17-.34-.35-.38-.61l.15-.02c.04.25.13.39.32.53.26.19.51.18.66-.03.07-.1.1-.19.08-.29-.03-.09-.05-.14-.17-.26l-.17-.17c-.11-.11-.18-.21-.2-.33-.03-.13.0-.26.09-.39.2-.27.51-.3.82-.08.2.15.29.29.34.51l-.14.02c-.03-.16-.09-.3-.28-.44-.24-.17-.47-.14-.62.06-.07.09-.09.18-.07.27.02.09.09.19.17.28l.15.15c.14.13.19.21.21.32.04.14.01.29-.09.42C34.64 121.66 34.31 121.68 33.97 121.44"/><path class="st1" d="M36.9 123.44 36.77 123.35 37.79 121.79 37.29 121.47 37.36 121.35 38.49 122.09 38.42 122.2 37.92 121.87z"/><path class="st1" d="M39.28 122.57 40.32 123.2 40.26 123.31 39.34 122.77 38.94 123.44 39.71 123.91 39.64 124.02 38.87 123.56 38.45 124.25 39.36 124.8 39.29 124.91 38.25 124.29z"/><path class="st1" d="M41.28 124.97l-.48-.26-.44.81-.13-.07.96-1.75.67.37c.28.16.41.44.24.75-.14.26-.39.34-.66.25l-.02 1.04-.16-.08L41.28 124.97zM41.76 124.17l-.52-.28-.39.71.52.28c.23.12.45.1.58-.14C42.09 124.49 41.99 124.29 41.76 124.17"/><path class="st1" d="M43.42 126.09l-.49-.25-.41.82-.14-.07.9-1.79.68.34c.29.14.43.42.27.74-.13.27-.38.36-.65.28l.02 1.04-.16-.08L43.42 126.09zM43.88 125.27 43.35 125l-.36.72.53.26c.23.12.45.08.58-.17C44.21 125.58 44.11 125.38 43.88 125.27"/><path class="st1" d="M45.41 125.85 45.55 125.91 44.71 127.73 44.57 127.67z"/><path class="st1" d="M46.29 128.44 46.15 128.38 46.88 126.66 46.34 126.43 46.39 126.3 47.63 126.83 47.57 126.96 47.02 126.72z"/><path class="st1" d="M48.81 129.25c-.17.07-.36.08-.54.01-.18-.07-.32-.2-.39-.37-.1-.24-.04-.4.12-.82.16-.42.23-.58.47-.69.17-.08.36-.08.54-.01.18.07.32.2.39.37.1.24.04.4-.12.82C49.11 128.98 49.04 129.14 48.81 129.25M49.25 127.77c-.06-.13-.17-.23-.3-.28-.13-.05-.28-.05-.41.01-.19.08-.25.22-.41.62-.15.4-.2.55-.12.73.06.13.17.23.3.28.13.05.28.05.41-.01.19-.08.25-.22.41-.62C49.29 128.1 49.33 127.95 49.25 127.77"/><path class="st1" d="M50.64 127.99 50.79 128.04 50.12 129.92 49.98 129.87z"/><path class="st1" d="M52.21 129.65l-.53-.17-.28.88-.14-.05.61-1.9.73.23c.31.1.49.35.38.68-.09.29-.32.41-.6.37l.18 1.03-.17-.05L52.21 129.65zM52.53 128.76l-.56-.18-.25.77.56.18c.25.08.46.01.54-.25C52.91 129.02 52.78 128.84 52.53 128.76"/><path class="st1" d="M54.13 129.11 55.29 129.43 55.26 129.56 54.24 129.28 54.03 130.04 54.9 130.28 54.86 130.41 53.99 130.17 53.78 130.94 54.8 131.23 54.76 131.36 53.59 131.03z"/><path class="st1" d="M56.29 131.76c-.29-.07-.45-.19-.59-.41l.13-.08c.13.22.26.3.5.36.31.07.53-.03.6-.28.03-.12.02-.22-.04-.3-.06-.08-.1-.11-.26-.17l-.22-.09c-.14-.06-.25-.13-.31-.22-.08-.11-.1-.24-.07-.4.08-.33.36-.48.73-.39.24.06.38.16.51.34l-.12.07c-.09-.14-.2-.24-.43-.29-.28-.07-.49.04-.55.29-.03.11-.01.21.04.28.06.07.16.14.26.19l.2.08c.18.07.25.12.32.21.09.11.12.26.08.42C56.99 131.7 56.7 131.85 56.29 131.76"/><path class="st1" d="M59.62 130.4 60.81 130.61 60.79 130.75 59.74 130.56 59.61 131.34 60.5 131.5 60.47 131.63 59.58 131.47 59.44 132.27 60.49 132.45 60.46 132.59 59.27 132.38z"/><path class="st1" d="M62.02 132.82 61.87 132.8 62.13 130.96 61.54 130.87 61.56 130.74 62.89 130.93 62.87 131.06 62.28 130.98z"/><path class="st1" d="M66.07 133.08c-.13.11-.3.16-.51.14l-.67-.06.17-1.99.67.06c.21.02.37.09.48.22.18.22.15.53.13.8C66.31 132.53 66.29 132.9 66.07 133.08M66.09 131.55c-.1-.13-.26-.18-.42-.19l-.48-.04-.15 1.72.48.04c.16.01.32-.01.44-.12.17-.15.19-.5.21-.72C66.2 132.02 66.24 131.73 66.09 131.55"/><path class="st1" d="M67.49 131.35 68.7 131.41 68.69 131.55 67.63 131.5 67.59 132.29 68.5 132.33 68.49 132.46 67.59 132.42 67.55 133.23 68.61 133.28 68.6 133.41 67.39 133.35z"/><path class="st1" d="M70.16 133.46c-.3-.01-.48-.09-.66-.27l.11-.11c.18.18.32.24.56.25.32.01.52-.14.52-.4.0-.12-.03-.22-.11-.28-.07-.06-.12-.09-.29-.11l-.23-.04c-.15-.02-.27-.07-.35-.15-.1-.09-.15-.21-.15-.37.01-.34.25-.54.63-.54.25.0.4.07.57.23l-.1.1c-.12-.11-.25-.19-.48-.19-.29-.01-.47.15-.47.4.0.11.03.2.1.26.07.06.18.11.3.13l.22.04c.19.03.28.07.35.14.11.09.17.23.17.39C70.84 133.26 70.58 133.47 70.16 133.46"/><path class="st1" d="M73.88 132.45l-.55.03.04.92-.15.01-.09-2 .76-.04c.33-.01.58.16.6.51.01.3-.16.5-.44.56l.53.9-.18.01L73.88 132.45zM73.88 131.51l-.59.03.04.81.59-.03c.26-.01.44-.15.42-.43C74.32 131.61 74.13 131.49 73.88 131.51"/><path class="st1" d="M75.49 131.28 76.7 131.17 76.71 131.31 75.65 131.4 75.72 132.18 76.62 132.11 76.63 132.24 75.73 132.32 75.8 133.12 76.86 133.03 76.87 133.17 75.66 133.27z"/><path class="st1" d="M77.69 131.07 77.84 131.05 78.06 132.9 79.12 132.77 79.13 132.91 77.93 133.05z"/><path class="st1" d="M81.02 132.13l-.92.15-.1.51-.16.03.42-2.09.13-.02 1.04 1.86-.16.03L81.02 132.13zM80.13 132.14l.83-.13-.6-1.1L80.13 132.14z"/><path class="st1" d="M82.71 132.32 82.56 132.35 82.21 130.52 81.63 130.63 81.6 130.5 82.92 130.25 82.95 130.38 82.36 130.49z"/><path class="st1" d="M83.83 130.06 83.98 130.02 84.41 131.98 84.26 132.01z"/><path class="st1" d="M86.61 131.25c-.1.16-.25.27-.43.32s-.37.02-.54-.08c-.22-.13-.27-.31-.38-.74-.11-.44-.15-.61-.02-.83.1-.16.25-.27.43-.32.18-.05.37-.02.53.08.22.13.27.3.38.74C86.7 130.85 86.75 131.03 86.61 131.25M86.12 129.79c-.12-.07-.27-.09-.41-.06-.14.04-.26.12-.33.24-.1.17-.08.33.03.74.1.41.15.56.33.67.12.07.27.09.41.06s.26-.12.33-.24c.1-.17.08-.33-.03-.74C86.34 130.04 86.29 129.89 86.12 129.79"/><path class="st1" d="M87.6 129.38 88.09 131.05 87.95 131.09 87.38 129.17 87.53 129.13 89.12 130.47 88.63 128.8 88.78 128.76 89.34 130.68 89.2 130.72z"/><path class="st1" d="M90.99 130.15c-.28.1-.48.08-.72-.03l.07-.14c.23.11.39.12.61.04.3-.1.44-.31.35-.56-.04-.11-.1-.19-.19-.23-.09-.03-.14-.04-.31-.01l-.23.04c-.15.03-.28.02-.38-.02-.13-.05-.22-.15-.27-.3-.11-.32.05-.6.41-.72.23-.08.4-.07.61.02l-.06.13c-.15-.07-.3-.1-.52-.02-.28.1-.39.3-.31.54.04.11.1.18.18.21.08.03.21.04.32.02l.22-.04c.19-.04.28-.03.38.01.13.05.24.16.29.31C91.56 129.73 91.39 130.02 90.99 130.15"/><path class="st1" d="M94.6 128.26l-.87.35.02.52-.15.06-.07-2.13.13-.05 1.44 1.58-.15.06L94.6 128.26zM93.72 128.47l.78-.31-.83-.94L93.72 128.47z"/><path class="st1" d="M96.21 128.1 94.8 126.54 94.95 126.47 96.17 127.83 95.97 126.01 96.12 125.95 96.33 128.05z"/><path class="st1" d="M96.9 125.59 97.99 125.06 98.05 125.18 97.1 125.64 97.44 126.35 98.25 125.95 98.31 126.07 97.5 126.47 97.85 127.19 98.81 126.73 98.87 126.85 97.78 127.38z"/><path class="st1" d="M100.36 126.09c-.17.09-.36.11-.54.05-.25-.07-.33-.23-.54-.63-.21-.4-.29-.56-.22-.8.05-.18.18-.33.34-.42.32-.17.64-.09.88.19l-.14.07c-.18-.22-.44-.28-.68-.15-.13.07-.22.18-.26.32-.06.19.01.34.21.71.2.38.29.51.48.57.14.04.28.03.41-.04.24-.13.33-.37.25-.65l.13-.07C100.79 125.61 100.67 125.93 100.36 126.09"/><path class="st1" d="M102 122.84 102.13 122.76 103.11 124.36 104.01 123.8 104.08 123.92 103.05 124.55z"/><path class="st1" d="M103.82 121.71 104.83 121.04 104.91 121.15 104.02 121.74 104.46 122.4l.75-.5L105.29 122.01 104.53 122.51 104.98 123.18 105.86 122.6 105.94 122.71 104.92 123.38z"/><path class="st1" d="M107.22 121.83c-.24.17-.44.21-.7.17l.02-.15c.25.04.4.0.6-.14.26-.19.33-.42.18-.64-.07-.1-.15-.16-.25-.17-.1.0-.15.0-.3.08l-.21.11c-.14.07-.26.1-.38.09-.14-.01-.25-.08-.34-.21-.2-.27-.13-.58.19-.81.2-.14.37-.18.6-.16l-.02.14c-.16-.02-.31-.01-.5.13-.24.17-.29.4-.14.61.07.09.15.15.24.15.09.01.21-.02.32-.07l.19-.1c.17-.09.26-.11.37-.1.14.01.27.08.37.21C107.65 121.26 107.57 121.58 107.22 121.83"/><path class="st1" d="M110.13 119.62c-.15.12-.33.18-.52.15-.26-.03-.37-.17-.65-.51-.28-.35-.39-.49-.37-.75.02-.19.11-.35.26-.47.28-.23.62-.21.9.03l-.12.1c-.22-.18-.48-.19-.69-.02-.11.09-.18.22-.2.36-.02.2.07.33.34.66.27.33.38.45.58.47.14.01.28-.03.39-.12.21-.17.26-.43.13-.68l.12-.09C110.46 119.06 110.4 119.4 110.13 119.62"/><path class="st1" d="M112.21 117.59c-.01.19-.1.36-.24.48-.14.13-.32.19-.51.17-.26-.02-.38-.15-.67-.49-.3-.34-.41-.48-.39-.73.01-.19.1-.36.24-.48.14-.13.33-.19.51-.17.26.02.38.15.67.49C112.12 117.2 112.23 117.34 112.21 117.59M111.11 116.51c-.14-.01-.28.04-.39.13-.11.09-.18.22-.19.37-.01.2.08.33.36.65.28.32.39.43.59.45.14.01.28-.04.39-.13.11-.09.18-.22.18-.36.01-.2-.08-.33-.36-.65C111.43 116.64 111.32 116.53 111.11 116.51"/><path class="st1" d="M111.96 115.38 112.07 115.28 113.34 116.64 114.12 115.91 114.21 116.01 113.32 116.84z"/><path class="st1" d="M113.5 113.91 113.6 113.8 114.93 115.11 115.67 114.36 115.77 114.46 114.92 115.32z"/><path class="st1" d="M114.99 112.38 115.81 111.49 115.91 111.58 115.19 112.36 115.77 112.9 116.38 112.23 116.48 112.32 115.87 112.99 116.46 113.54 117.18 112.76 117.28 112.85 116.46 113.74z"/><path class="st1" d="M118.39 111.61c-.13.15-.3.23-.48.25-.26.02-.4-.1-.74-.39-.34-.29-.48-.41-.5-.67-.01-.19.05-.37.17-.51.23-.27.57-.32.89-.14l-.1.12c-.25-.14-.51-.1-.68.11-.09.11-.14.25-.13.39.01.2.13.31.45.59.32.28.45.37.65.36.14-.01.27-.08.36-.19.18-.21.18-.47.0-.7l.1-.11C118.62 111 118.62 111.34 118.39 111.61"/><path class="st1" d="M119.82 109.85 119.73 109.97 118.27 108.8 117.9 109.27 117.79 109.18 118.64 108.13 118.74 108.22 118.37 108.68z"/><path class="st1" d="M119.2 107.39 119.29 107.27 120.89 108.47 120.8 108.6z"/><path class="st1" d="M121.82 107.2 119.81 106.57 119.9 106.44 121.64 106.99 120.56 105.53 120.65 105.4 121.9 107.1z"/><path transform="matrix(0.5578 -0.83 0.83 0.5578 -33.3325 147.7801)" class="st1" d="M121.94 104.17h.15v2H121.94z"/><path class="st1" d="M123.83 104.22 123.75 104.34 122.17 103.35 121.85 103.85 121.74 103.78 122.46 102.64 122.57 102.71 122.25 103.22z"/><path class="st1" d="M122.99 101.37l-.22-.44.1-.16.21.47L122.99 101.37zM122.93 101.85l.61-1.05.12.07-.54.92.68.4.46-.78.12.07-.46.78.7.41.54-.92.11.07-.61 1.05L122.93 101.85z"/><path class="st1" d="M126.05 100.45c-.14.26-.3.39-.55.46l-.04-.14c.24-.07.36-.18.48-.39.15-.28.11-.53-.12-.65-.11-.06-.21-.07-.3-.04-.09.04-.13.07-.23.2l-.14.19c-.09.12-.19.2-.3.24-.13.05-.26.04-.4-.04-.3-.16-.37-.47-.19-.81.12-.22.25-.32.46-.4l.04.13c-.15.05-.28.13-.39.34-.14.26-.08.48.14.6.1.06.19.07.28.03.09-.03.18-.11.25-.2l.13-.17c.11-.15.19-.21.29-.25.13-.05.28-.05.42.03C126.18 99.75 126.24 100.08 126.05 100.45"/><path class="st1" d="M127.63 97.26 127.56 97.39 125.87 96.6 125.62 97.14 125.5 97.08 126.07 95.87 126.19 95.92 125.94 96.46z"/><path class="st1" d="M126.44 95.02 126.91 93.9 127.04 93.95 126.62 94.93 127.35 95.24 127.7 94.41 127.83 94.46 127.47 95.29 128.22 95.61 128.63 94.63 128.76 94.68 128.28 95.8z"/><path class="st1" d="M128.54 92.71l-.2.52.86.33-.05.14-1.87-.71.27-.71c.12-.31.38-.47.71-.35.28.11.4.34.34.62l1.04-.12-.06.17L128.54 92.71zM127.67 92.34l-.21.55.76.29.21-.55c.09-.24.04-.46-.22-.56C127.95 91.97 127.77 92.09 127.67 92.34"/><path class="st1" d="M129.35 90.44l-.18.52.87.3L130 91.41l-1.9-.64.24-.72c.1-.31.36-.48.69-.37.28.1.41.33.36.61l1.03-.16-.06.17L129.35 90.44zM128.47 90.11l-.19.56.77.26.19-.56c.08-.25.02-.46-.24-.55C128.73 89.73 128.55 89.86 128.47 90.11"/><path transform="matrix(0.2885 -0.9575 0.9575 0.2885 7.4107 187.4223)" class="st1" d="M129.74 87.72h.15v2H129.74z"/><path class="st1" d="M131.27 87.27 131.23 87.42 129.43 86.93 129.27 87.51 129.14 87.47 129.5 86.17 129.63 86.21 129.47 86.79z"/><path class="st1" d="M131.73 84.67c.1.16.13.35.09.53-.04.18-.15.34-.31.44-.22.14-.4.1-.83.0-.44-.1-.61-.15-.75-.37-.1-.16-.13-.35-.09-.53.04-.19.15-.34.31-.44.22-.13.39-.1.83.01C131.42 84.41 131.59 84.45 131.73 84.67M130.2 84.44c-.12.08-.21.19-.24.33-.03.14-.01.28.06.4.11.17.26.22.67.32.41.1.57.12.74.01.12-.07.21-.19.24-.33.03-.14.01-.28-.06-.4-.11-.17-.26-.22-.67-.32C130.53 84.36 130.38 84.33 130.2 84.44"/><path class="st1" d="M131.42 82.55l-.1.54.9.17-.03.15-1.96-.38.14-.75c.06-.32.29-.53.63-.46.3.06.45.27.44.55l1-.3-.03.17L131.42 82.55zM130.5 82.33l-.11.58.79.15.11-.58c.05-.25-.04-.46-.32-.51C130.7 81.92 130.55 82.08 130.5 82.33"/><path transform="matrix(0.1589 -0.9873 0.9873 0.1589 30.9714 197.921)" class="st1" d="M131.58 79.78h.15v2H131.58z"/><path class="st1" d="M132.48 78.61l-.12.93.46.24-.02.16-1.89-.99.02-.14 2.08-.47-.02.16L132.48 78.61zM132.23 79.47l.11-.83-1.22.26L132.23 79.47z"/><path class="st1" d="M131.12 77.21 131.13 77.06 132.99 77.23 133.09 76.18 133.22 76.19 133.11 77.4z"/><path class="st1" d="M131.3 75.08 131.37 73.87 131.51 73.88 131.45 74.94 132.23 74.98 132.29 74.08 132.42 74.09 132.37 74.99 133.17 75.04 133.24 73.98 133.37 73.99 133.3 75.2z"/><path class="st1" d="M133.44 72.42c-.01.3-.09.48-.28.66l-.1-.11c.18-.18.24-.32.25-.56.01-.32-.14-.52-.4-.52-.12.0-.22.03-.28.1-.06.08-.09.12-.11.29l-.04.23c-.03.15-.08.27-.15.35-.09.1-.21.15-.37.15-.34-.01-.54-.25-.53-.63.01-.25.08-.4.23-.57l.1.1c-.11.12-.19.25-.2.48-.01.29.15.47.4.47.12.0.2-.03.26-.1.06-.07.11-.18.13-.29l.04-.22c.03-.19.07-.27.14-.35.09-.11.23-.17.39-.17C133.25 71.74 133.45 72 133.44 72.42"/><path class="st1" d="M9 61.09 10.54 61.35 11.09 58.08 13.02 58.4 12.47 61.67 15.87 62.24 15.51 64.41 6.7 62.93 7.7 56.94 9.64 57.27z"/><path class="st1" d="M18.71 51.31l-1.39-.03-.88 2.6 1.12.84-.74 2.17-7.42-5.94.54-1.6 9.5-.22L18.71 51.31zM12.9 51.19l2 1.52.5-1.47L12.9 51.19z"/><path class="st1" d="M22.47 43.37l-1.88 3.4-7.81-4.32 1.79-3.24c.9-1.62 2.29-1.99 3.64-1.24.89.49 1.04 1.38 1.07 1.71.37-.21 1.14-.63 2.23-.03C23 40.48 23.24 41.97 22.47 43.37M16.22 40.28l-.66 1.2 1.27.7.66-1.2c.29-.53.05-.87-.26-1.04C16.93 39.77 16.51 39.76 16.22 40.28M19.27 41.84l-.72 1.3 1.37.76.72-1.29c.29-.53.03-.9-.3-1.08C20.01 41.33 19.56 41.31 19.27 41.84"/><path class="st1" d="M28.51 34.74l-3.58-.87-.47.57 2.58 2.1-1.39 1.7-6.93-5.63 2.23-2.75c1.25-1.54 3.01-1.48 4.15-.55.94.77 1.06 1.83.89 2.6l4.11.85L28.51 34.74zM22.42 31.19l-.78.96 1.4 1.14.78-.96c.38-.47.26-1.02-.1-1.31C23.36 30.73 22.8 30.72 22.42 31.19"/><path transform="matrix(0.7348 -0.6783 0.6783 0.7348 -10.1263 27.4902)" class="st1" d="M28.99 22.23h2.19v8.93H28.99z"/><path class="st1" d="M41.46 23.96l-.96-.18c-.24.5-.62.93-1.19 1.32-.9.62-1.72.76-2.62.59-1.31-.24-1.99-1.29-2.75-2.4-.76-1.1-1.51-2.11-1.27-3.42.17-.91.59-1.62 1.48-2.24.9-.62 1.72-.76 2.62-.59 1.31.24 1.99 1.29 2.75 2.4.63.92 1.26 1.78 1.31 2.8l.91.17L41.46 23.96zM36.21 19.07c-.26-.08-.61-.05-.94.18-.33.23-.49.55-.5.82-.01.33.05.65.98 1.99.93 1.34 1.19 1.51 1.51 1.61.25.08.62.06.95-.17.05-.04.09-.06.14-.11l-.78-.14.28-1.55.59.11c-.15-.26-.36-.62-.71-1.11C36.8 19.35 36.52 19.17 36.21 19.07"/><path class="st1" d="M47.87 20.25c-1.69.77-3.59.26-4.4-1.52l-2.4-5.28 2-.91 2.38 5.23c.34.75.95 1 1.61.7.66-.3.9-.93.56-1.69l-2.38-5.23 2-.91 2.4 5.28C50.44 17.7 49.56 19.48 47.87 20.25"/><path class="st1" d="M54.14 17.69 51.91 9.04 57.79 7.53 58.28 9.42 54.52 10.39 54.89 11.84 58.1 11.01 58.59 12.9 55.38 13.73 55.77 15.25 59.53 14.28 60.01 16.18z"/><path class="st1" d="M69.41 7.41 69.28 15.18 68.6 15.17 68.76 6.24 69.43 6.25 74.45 14.08 74.59 6.34 75.27 6.35 75.11 15.28 74.43 15.27z"/><path class="st1" d="M82.37 16.48c-1.76-.37-2.74-1.83-2.39-3.54l1.24-5.91.66.14-1.22 5.82c-.3 1.45.42 2.6 1.83 2.9 1.41.3 2.53-.47 2.84-1.92l1.22-5.82.66.14-1.24 5.91C85.62 15.91 84.12 16.85 82.37 16.48"/><path class="st1" d="M98.65 14.21 93.75 18.74 93.12 18.48 93.01 11.78 90.09 18.53 89.47 18.26 93.01 10.07 93.63 10.34 93.76 17.89 99.28 12.77 99.9 13.04 96.36 21.24 95.74 20.97z"/><path class="st1" d="M105.2 16.11l4.48 3.05-.34.5-3.92-2.67-1.99 2.91 3.34 2.27-.34.5-3.34-2.27-2.03 2.98 3.92 2.67-.34.5-4.48-3.05L105.2 16.11zM107.31 16.51l2.04-.84.69.47-2.14.78L107.31 16.51z"/><path class="st1" d="M112.72 28.2l-1.77-1.71-2.86 2.95-.49-.47 6.21-6.41 2.44 2.36c1.04 1.01 1.25 2.38.17 3.5-.93.96-2.1 1.02-3.15.3l-1.32 4.46-.57-.55L112.72 28.2zM115.78 25.3l-1.89-1.83-2.51 2.59 1.89 1.83c.83.8 1.81.96 2.67.07C116.8 27.07 116.61 26.1 115.78 25.3"/><path transform="matrix(0.7882 -0.6155 0.6155 0.7882 4.2021 79.9614)" class="st1" d="M113.79 33.54h8.93v.68H113.79z"/><path class="st1" d="M120.56 44.4c-.66-.26-1.22-.75-1.57-1.36-.43-.74-.54-1.58-.33-2.39.3-1.11.98-1.53 2.72-2.53 1.75-1.01 2.44-1.4 3.55-1.1.81.21 1.48.73 1.91 1.47.43.74.54 1.58.33 2.39-.3 1.12-.97 1.52-2.72 2.54-1.58.92-2.33 1.34-3.27 1.16l-.38 1.44-.62-.16L120.56 44.4zM126.58 40.59c.16-.62.07-1.26-.25-1.81-.32-.55-.83-.96-1.45-1.12-.87-.23-1.51.08-3.16 1.03-1.65.96-2.23 1.35-2.46 2.23-.16.62-.07 1.26.25 1.81.28.49.69.85 1.22 1.05l.46-1.71.62.16-.45 1.7c.69.06 1.38-.31 2.76-1.11C125.76 41.86 126.34 41.47 126.58 40.59"/><path class="st1" d="M123.22 52.16c-.6-1.69.13-3.3 1.77-3.88l5.68-2.03.23.64-5.6 2c-1.39.5-2 1.71-1.51 3.07.49 1.36 1.72 1.92 3.12 1.42l5.6-2 .23.64-5.68 2.03C125.41 54.63 123.82 53.85 123.22 52.16"/><path class="st1" d="M134.16 57.78 135.06 63.12 134.47 63.22 133.68 58.54 130.21 59.13 130.87 63.11 130.28 63.21 129.61 59.23 126.06 59.82 126.84 64.5 126.25 64.59 125.36 59.25z"/></g></svg>